<svg width="49" height="55" viewBox="0 0 49 55" fill="none" xmlns="http://www.w3.org/2000/svg">
<path d="M24.2418 2.67589C25.7317 0.825476 28.0303 -0.328047 30.9332 0.0831146C40.2896 1.40868 48.4005 9.59071 48.1383 11.3146C47.8747 13.038 38.565 17.9269 28.5328 15.8087C27.5693 15.6052 26.7279 15.2819 26.0006 14.8673V23.0001H28.0006C36.8369 23.0003 44.0005 30.1637 44.0006 39.0001C44.0006 47.8365 36.837 54.9999 28.0006 55.0001H21.0006C12.164 55.0001 5.00058 47.8367 5.00058 39.0001C5.00065 30.1636 12.1641 23.0001 21.0006 23.0001H23.0006V14.4093C21.9888 15.2478 20.7159 15.8434 19.1783 16.0587C9.81972 17.3684 0.132491 11.6922 0.0015564 9.9503C-0.127534 8.20731 7.79396 0.892699 17.983 0.163193C20.8422 -0.041477 22.9276 1.01812 24.2418 2.67589Z" fill="#D9D9D9"/>
</svg>
